SplineFontDB: 3.0
FontName: MScore1-20
FullName: MScore1
FamilyName: MScore1
Weight: Book
Copyright: This font is distributed under the GNU General Public License. As a special exception, if you create a document which uses this font, and embed this font or unaltered portions of this font into the document, this font does not by itself cause the resulting document to be covered by the GNU General Public License.
Version: 2.11.65
ItalicAngle: 0
UnderlinePosition: -100
UnderlineWidth: 50
Ascent: 820
Descent: 204
LayerCount: 2
Layer: 0 1 "Back"  1
Layer: 1 1 "Fore"  0
XUID: [1021 577 2134738168 13465891]
FSType: 0
OS2Version: 0
OS2_WeightWidthSlopeOnly: 0
OS2_UseTypoMetrics: 1
CreationTime: 1271071127
ModificationTime: 1304602630
PfmFamily: 17
TTFWeight: 400
TTFWidth: 5
LineGap: 90
VLineGap: 0
Panose: 2 0 5 3 0 0 0 0 0 0
OS2TypoAscent: 0
OS2TypoAOffset: 1
OS2TypoDescent: 0
OS2TypoDOffset: 1
OS2TypoLinegap: 90
OS2WinAscent: 0
OS2WinAOffset: 1
OS2WinDescent: 0
OS2WinDOffset: 1
HheadAscent: 0
HheadAOffset: 1
HheadDescent: 0
HheadDOffset: 1
OS2SubXSize: 650
OS2SubYSize: 699
OS2SubXOff: 0
OS2SubYOff: 140
OS2SupXSize: 650
OS2SupYSize: 699
OS2SupXOff: 0
OS2SupYOff: 479
OS2StrikeYSize: 49
OS2StrikeYPos: 258
OS2Vendor: 'PfEd'
OS2CodePages: 00000001.00000000
OS2UnicodeRanges: 00000001.00000000.00000000.00000000
MarkAttachClasses: 1
DEI: 91125
ShortTable: cvt  2
  33
  633
EndShort
ShortTable: maxp 16
  1
  0
  42
  82
  5
  0
  0
  2
  0
  1
  1
  0
  64
  46
  0
  0
EndShort
LangName: 1033 "" "" "" "FontForge 2.0 : MScore1 : 30-11-2010" 
GaspTable: 1 65535 2
Encoding: UnicodeFull
UnicodeInterp: none
NameList: Adobe Glyph List
DisplaySize: -48
AntiAlias: 1
FitToEm: 1
WinInfo: 118860 35 13
TeXData: 1 0 0 353280 176640 117760 540672 1048576 117760 783286 444596 497025 792723 393216 433062 380633 303038 157286 324010 404750 52429 2506097 1059062 262144
BeginChars: 1114112 40

StartChar: noteheads.sM1
Encoding: 57600 57600 0
Width: 655
Flags: W
LayerCount: 2
Fore
SplineSet
328 355 m 128,-1,1
 426 355 426 355 486 323.5 c 128,-1,2
 546 292 546 292 565 256 c 1,3,-1
 565 329 l 2,4,5
 565 340 565 340 572.5 347.5 c 128,-1,6
 580 355 580 355 590 355 c 128,-1,7
 600 355 600 355 607.5 347.5 c 128,-1,8
 615 340 615 340 615 329 c 2,9,-1
 615 104 l 2,10,11
 615 94 615 94 607.5 86.5 c 128,-1,12
 600 79 600 79 590 79 c 128,-1,13
 580 79 580 79 572.5 86.5 c 128,-1,14
 565 94 565 94 565 104 c 2,15,-1
 565 178 l 1,16,17
 546 142 546 142 486 110.5 c 128,-1,18
 426 79 426 79 328 79 c 128,-1,19
 230 79 230 79 169.5 110.5 c 128,-1,20
 109 142 109 142 90 178 c 1,21,-1
 90 104 l 2,22,23
 90 94 90 94 83 86.5 c 128,-1,24
 76 79 76 79 65 79 c 128,-1,25
 54 79 54 79 47 86.5 c 128,-1,26
 40 94 40 94 40 104 c 2,27,-1
 40 329 l 2,28,29
 40 340 40 340 47.5 347.5 c 128,-1,30
 55 355 55 355 65 355 c 128,-1,31
 75 355 75 355 82.5 347.5 c 128,-1,32
 90 340 90 340 90 329 c 2,33,-1
 90 256 l 1,34,35
 109 292 109 292 169.5 323.5 c 128,-1,0
 230 355 230 355 328 355 c 128,-1,1
295 329 m 0,36,37
 261 329 261 329 243.5 305 c 128,-1,38
 226 281 226 281 226 241 c 0,39,40
 226 195 226 195 250.5 162.5 c 128,-1,41
 275 130 275 130 304 117.5 c 128,-1,42
 333 105 333 105 360 105 c 0,43,44
 394 105 394 105 411.5 129 c 128,-1,45
 429 153 429 153 429 193 c 0,46,47
 429 239 429 239 404.5 271.5 c 128,-1,48
 380 304 380 304 351 316.5 c 128,-1,49
 322 329 322 329 295 329 c 0,36,37
EndSplineSet
Validated: 1
EndChar

StartChar: noteheads.s0
Encoding: 57601 57601 1
Width: 575
Flags: W
LayerCount: 2
Fore
SplineSet
255 329 m 0,0,1
 221 329 221 329 203.5 305 c 128,-1,2
 186 281 186 281 186 241 c 0,3,4
 186 195 186 195 210.5 162.5 c 128,-1,5
 235 130 235 130 264 117.5 c 128,-1,6
 293 105 293 105 320 105 c 0,7,8
 354 105 354 105 371.5 129 c 128,-1,9
 389 153 389 153 389 193 c 0,10,11
 389 239 389 239 364.5 271.5 c 128,-1,12
 340 304 340 304 311 316.5 c 128,-1,13
 282 329 282 329 255 329 c 0,0,1
288 355 m 0,14,15
 393 355 393 355 464 314 c 128,-1,16
 535 273 535 273 535 217 c 0,17,18
 535 158 535 158 461.5 118.5 c 128,-1,19
 388 79 388 79 288 79 c 0,20,21
 184 79 184 79 112 120 c 128,-1,22
 40 161 40 161 40 217 c 0,23,24
 40 276 40 276 114 315.5 c 128,-1,25
 188 355 188 355 288 355 c 0,14,15
EndSplineSet
Validated: 1
EndChar

StartChar: noteheads.s1
Encoding: 57602 57602 2
Width: 427
Flags: W
LayerCount: 2
Fore
SplineSet
355 283 m 128,-1,1
 355 300 355 300 342.5 312 c 128,-1,2
 330 324 330 324 313 324 c 0,3,4
 285 324 285 324 195 265.5 c 128,-1,5
 105 207 105 207 83 181 c 0,6,7
 72 168 72 168 72 153 c 0,8,9
 72 136 72 136 84.5 124 c 128,-1,10
 97 112 97 112 114 112 c 0,11,12
 142 112 142 112 232.5 170.5 c 128,-1,13
 323 229 323 229 345 255 c 0,14,0
 355 266 355 266 355 283 c 128,-1,1
304 355 m 0,15,16
 387 355 387 355 387 283 c 0,17,18
 387 248 387 248 367 201.5 c 128,-1,19
 347 155 347 155 312 131 c 0,20,21
 238 81 238 81 124 81 c 0,22,23
 40 81 40 81 40 153 c 0,24,25
 40 188 40 188 60 234.5 c 128,-1,26
 80 281 80 281 115 305 c 0,27,28
 189 355 189 355 304 355 c 0,15,16
EndSplineSet
Validated: 1
EndChar

StartChar: noteheads.s2
Encoding: 57603 57603 3
Width: 409
Flags: W
LayerCount: 2
Fore
SplineSet
260 368 m 0,0,1
 309 368 309 368 339 343 c 128,-1,2
 369 318 369 318 369 277 c 0,3,4
 369 210 369 210 299 151 c 128,-1,5
 229 92 229 92 149 92 c 0,6,7
 100 92 100 92 70 117 c 128,-1,8
 40 142 40 142 40 183 c 0,9,10
 40 250 40 250 110 309 c 128,-1,11
 180 368 180 368 260 368 c 0,0,1
EndSplineSet
Validated: 1
EndChar

StartChar: mscore.no1
Encoding: 57604 57604 4
Width: 467
Flags: W
LayerCount: 2
Fore
SplineSet
375 2 m 1,0,1
 374 18 374 18 362 28.5 c 128,-1,2
 350 39 350 39 333 39 c 0,3,4
 305 39 305 39 215 -19.5 c 128,-1,5
 125 -78 125 -78 103 -104 c 0,6,7
 92 -117 92 -117 92 -132 c 0,8,9
 92 -149 92 -149 104.5 -161 c 128,-1,10
 117 -173 117 -173 134 -173 c 0,11,12
 162 -173 162 -173 252.5 -114.5 c 128,-1,13
 343 -56 343 -56 365 -30 c 0,14,15
 375 -19 375 -19 375 -2 c 2,16,-1
 375 2 l 1,0,1
144 -204 m 0,17,18
 60 -204 60 -204 60 -132 c 0,19,20
 60 -97 60 -97 80 -50.5 c 128,-1,21
 100 -4 100 -4 135 20 c 0,22,23
 209 70 209 70 324 70 c 0,24,25
 356 70 356 70 375 60 c 1,26,-1
 375 748 l 1,27,28
 377 764 377 764 391 765 c 1,29,30
 405 764 405 764 407 748 c 1,31,-1
 407 -1 l 2,32,33
 407 -36 407 -36 387 -83 c 128,-1,34
 367 -130 367 -130 332 -154 c 0,35,36
 258 -204 258 -204 144 -204 c 0,17,18
EndSplineSet
Validated: 1
EndChar

StartChar: mscore.no4
Encoding: 57606 57606 6
Width: 612
Flags: W
LayerCount: 2
Fore
SplineSet
373 747 m 1,0,1
 388 746 388 746 389 731 c 1,2,-1
 389 633 l 1,3,4
 405 585 405 585 439.5 524 c 128,-1,5
 474 463 474 463 504.5 417 c 128,-1,6
 535 371 535 371 558.5 309.5 c 128,-1,7
 582 248 582 248 582 191 c 0,8,9
 582 89 582 89 540 -19 c 1,10,11
 532 -31 532 -31 521 -31 c 0,12,13
 511 -31 511 -31 503.5 -23 c 128,-1,14
 496 -15 496 -15 498 -4 c 1,15,16
 540 96 540 96 540 191 c 0,17,18
 540 256 540 256 498.5 322 c 128,-1,19
 457 388 457 388 389 463 c 1,20,-1
 389 -19 l 2,21,22
 389 -86 389 -86 319 -145 c 128,-1,23
 249 -204 249 -204 169 -204 c 0,24,25
 120 -204 120 -204 90 -179 c 128,-1,26
 60 -154 60 -154 60 -113 c 0,27,28
 60 -46 60 -46 130 13 c 128,-1,29
 200 72 200 72 280 72 c 0,30,31
 326 72 326 72 357 49 c 1,32,-1
 357 731 l 1,33,34
 358 746 358 746 373 747 c 1,0,1
EndSplineSet
Validated: 1
EndChar

StartChar: mscore.no8
Encoding: 57607 57607 7
Width: 622
Flags: W
LayerCount: 2
Fore
SplineSet
525 214 m 1,0,1
 533 238 533 238 533 261 c 0,2,3
 533 321 533 321 493 380 c 128,-1,4
 453 439 453 439 389 503 c 1,5,-1
 389 432 l 1,6,7
 402 397 402 397 424.5 361 c 128,-1,8
 447 325 447 325 478.5 281.5 c 128,-1,9
 510 238 510 238 525 214 c 1,0,1
373 747 m 1,10,11
 388 746 388 746 389 731 c 1,12,-1
 389 643 l 1,13,14
 404 601 404 601 438 548.5 c 128,-1,15
 472 496 472 496 501 457 c 128,-1,16
 530 418 530 418 553 364.5 c 128,-1,17
 576 311 576 311 576 261 c 0,18,19
 576 217 576 217 552 166 c 1,20,21
 582 104 582 104 582 49 c 0,22,23
 582 -40 582 -40 540 -134 c 1,24,25
 532 -146 532 -146 521 -146 c 0,26,27
 511 -146 511 -146 503.5 -138 c 128,-1,28
 496 -130 496 -130 498 -119 c 1,29,30
 540 -35 540 -35 540 49 c 0,31,32
 540 149 540 149 389 291 c 1,33,-1
 389 -19 l 2,34,35
 389 -86 389 -86 319 -145 c 128,-1,36
 249 -204 249 -204 169 -204 c 0,37,38
 120 -204 120 -204 90 -179 c 128,-1,39
 60 -154 60 -154 60 -113 c 0,40,41
 60 -46 60 -46 130 13 c 128,-1,42
 200 72 200 72 280 72 c 0,43,44
 326 72 326 72 357 49 c 1,45,-1
 357 731 l 1,46,47
 358 746 358 746 373 747 c 1,10,11
EndSplineSet
Validated: 1
EndChar

StartChar: mscore.no16
Encoding: 57608 57608 8
Width: 622
Flags: W
LayerCount: 2
Fore
SplineSet
509 363 m 1,0,1
 513 378 513 378 513 396 c 0,2,3
 513 493 513 493 379 640 c 1,4,-1
 379 568 l 1,5,6
 391 535 391 535 412.5 501.5 c 128,-1,7
 434 468 434 468 464.5 426 c 128,-1,8
 495 384 495 384 509 363 c 1,0,1
363 820 m 1,9,10
 378 819 378 819 379 804 c 1,11,-1
 379 780 l 1,12,13
 396 730 396 730 442.5 660 c 128,-1,14
 489 590 489 590 522 525 c 128,-1,15
 555 460 555 460 555 396 c 0,16,17
 555 353 555 353 537 314 c 1,18,19
 566 254 566 254 566 201 c 0,20,21
 566 150 566 150 542 97 c 1,22,23
 572 39 572 39 572 -17 c 0,24,25
 572 -104 572 -104 530 -193 c 1,26,27
 523 -204 523 -204 511 -204 c 0,28,29
 501 -204 501 -204 493.5 -196 c 128,-1,30
 486 -188 486 -188 488 -177 c 1,31,32
 530 -96 530 -96 530 -17 c 0,33,34
 530 80 530 80 379 209 c 1,35,-1
 379 -19 l 2,36,37
 379 -86 379 -86 309 -145 c 128,-1,38
 239 -204 239 -204 159 -204 c 0,39,40
 110 -204 110 -204 80 -179 c 128,-1,41
 50 -154 50 -154 50 -113 c 0,42,43
 50 -46 50 -46 120 13 c 128,-1,44
 190 72 190 72 270 72 c 0,45,46
 316 72 316 72 347 49 c 1,47,-1
 347 804 l 1,48,49
 348 819 348 819 363 820 c 1,9,10
514 144 m 1,50,51
 523 171 523 171 523 201 c 0,52,53
 523 258 523 258 483.5 312 c 128,-1,54
 444 366 444 366 379 425 c 1,55,-1
 379 351 l 1,56,57
 392 318 392 318 414 284 c 128,-1,58
 436 250 436 250 468 208 c 128,-1,59
 500 166 500 166 514 144 c 1,50,51
EndSplineSet
Validated: 1
EndChar

StartChar: mscore.no32
Encoding: 57609 57609 9
Width: 634
Flags: W
LayerCount: 2
Fore
SplineSet
514 61 m 1,0,1
 523 94 523 94 523 124 c 0,2,3
 523 181 523 181 483.5 207.5 c 128,-1,4
 444 234 444 234 379 247 c 1,5,-1
 379 173 l 1,6,7
 392 149 392 149 414 130.5 c 128,-1,8
 436 112 436 112 468 92.5 c 128,-1,9
 500 73 500 73 514 61 c 1,0,1
509 276 m 1,10,11
 513 294 513 294 513 312 c 0,12,13
 513 409 513 409 379 462 c 1,14,-1
 379 390 l 1,15,16
 391 365 391 365 412.5 347 c 128,-1,17
 434 329 434 329 464.5 308 c 128,-1,18
 495 287 495 287 509 276 c 1,10,11
379 -19 m 2,19,20
 379 -86 379 -86 309 -145 c 128,-1,21
 239 -204 239 -204 159 -204 c 0,22,23
 110 -204 110 -204 80 -179 c 128,-1,24
 50 -154 50 -154 50 -113 c 0,25,26
 50 -46 50 -46 120 13 c 128,-1,27
 190 72 190 72 270 72 c 0,28,29
 316 72 316 72 347 49 c 1,30,-1
 347 804 l 1,31,32
 347 820 347 820 363 820 c 129,-1,33
 379 820 379 820 379 804 c 1,34,35
 396 766 396 766 442.5 729 c 128,-1,36
 489 692 489 692 522 650 c 128,-1,37
 555 608 555 608 555 544 c 0,38,39
 555 486 555 486 535 427 c 1,40,41
 555 391 555 391 555 341 c 0,42,43
 555 297 555 297 537 247 c 1,44,45
 566 207 566 207 566 154 c 0,46,47
 566 103 566 103 542 33 c 1,48,49
 574 0 574 0 574 -50 c 0,50,51
 574 -105 574 -105 542 -174 c 0,52,53
 528 -204 528 -204 510 -204 c 0,54,55
 502 -204 502 -204 493 -196 c 1,56,57
 483 -188 483 -188 489 -177 c 0,58,59
 524 -108 524 -108 524 -66 c 0,60,61
 524 7 524 7 379 31 c 1,62,-1
 379 -19 l 2,19,20
507 465 m 1,63,64
 513 481 513 481 513 514 c 0,65,66
 513 609 513 609 379 664 c 1,67,-1
 379 602 l 1,68,69
 396 563 396 563 442 526 c 0,70,71
 478 497 478 497 507 465 c 1,63,64
EndSplineSet
Validated: 1
EndChar

StartChar: mscore.dot
Encoding: 57610 57610 10
Width: 192
Flags: W
LayerCount: 2
Fore
SplineSet
40 217 m 128,-1,1
 40 240 40 240 56.5 256.5 c 128,-1,2
 73 273 73 273 96 273 c 128,-1,3
 119 273 119 273 135.5 256.5 c 128,-1,4
 152 240 152 240 152 217 c 128,-1,5
 152 194 152 194 135.5 177.5 c 128,-1,6
 119 161 119 161 96 161 c 128,-1,7
 73 161 73 161 56.5 177.5 c 128,-1,0
 40 194 40 194 40 217 c 128,-1,1
EndSplineSet
Validated: 1
EndChar

StartChar: mscore.dotdot
Encoding: 57611 57611 11
Width: 442
Flags: W
LayerCount: 2
Fore
SplineSet
290 217 m 128,-1,1
 290 240 290 240 306.5 256.5 c 128,-1,2
 323 273 323 273 346 273 c 128,-1,3
 369 273 369 273 385.5 256.5 c 128,-1,4
 402 240 402 240 402 217 c 128,-1,5
 402 194 402 194 385.5 177.5 c 128,-1,6
 369 161 369 161 346 161 c 128,-1,7
 323 161 323 161 306.5 177.5 c 128,-1,0
 290 194 290 194 290 217 c 128,-1,1
40 217 m 128,-1,9
 40 240 40 240 56.5 256.5 c 128,-1,10
 73 273 73 273 96 273 c 128,-1,11
 119 273 119 273 135.5 256.5 c 128,-1,12
 152 240 152 240 152 217 c 128,-1,13
 152 194 152 194 135.5 177.5 c 128,-1,14
 119 161 119 161 96 161 c 128,-1,15
 73 161 73 161 56.5 177.5 c 128,-1,8
 40 194 40 194 40 217 c 128,-1,9
EndSplineSet
Validated: 1
EndChar

StartChar: mscore.sharp
Encoding: 57612 57612 12
Width: 424
Flags: W
LayerCount: 2
Fore
SplineSet
310 -59 m 2,0,1
 310 -69 310 -69 303 -75.5 c 128,-1,2
 296 -82 296 -82 288 -82 c 0,3,4
 278 -82 278 -82 271 -75.5 c 128,-1,5
 264 -69 264 -69 264 -59 c 2,6,-1
 264 123 l 1,7,-1
 160 84 l 1,8,-1
 160 -113 l 2,9,10
 160 -123 160 -123 152.5 -130 c 128,-1,11
 145 -137 145 -137 136.5 -137 c 128,-1,12
 128 -137 128 -137 121 -130 c 128,-1,13
 114 -123 114 -123 114 -113 c 2,14,-1
 114 68 l 1,15,-1
 74 53 l 2,16,17
 72 51 72 51 65 51 c 0,18,19
 55 51 55 51 47.5 59 c 128,-1,20
 40 67 40 67 40 77 c 2,21,-1
 40 151 l 2,22,23
 40 169 40 169 56 175 c 2,24,-1
 114 195 l 1,25,-1
 114 395 l 1,26,-1
 74 381 l 2,27,28
 72 380 72 380 65 380 c 0,29,30
 55 380 55 380 47.5 387.5 c 128,-1,31
 40 395 40 395 40 405 c 2,32,-1
 40 480 l 2,33,34
 40 496 40 496 56 503 c 2,35,-1
 114 524 l 1,36,-1
 114 721 l 2,37,38
 114 731 114 731 121 738 c 128,-1,39
 128 745 128 745 136.5 745 c 128,-1,40
 145 745 145 745 152.5 738 c 128,-1,41
 160 731 160 731 160 721 c 2,42,-1
 160 540 l 1,43,-1
 264 579 l 1,44,-1
 264 777 l 2,45,46
 264 787 264 787 271 793.5 c 128,-1,47
 278 800 278 800 288 800 c 0,48,49
 297 800 297 800 303.5 793.5 c 128,-1,50
 310 787 310 787 310 777 c 2,51,-1
 310 595 l 1,52,-1
 350 610 l 2,53,54
 352 611 352 611 359 611 c 0,55,56
 369 611 369 611 376.5 604 c 128,-1,57
 384 597 384 597 384 587 c 2,58,-1
 384 511 l 2,59,60
 384 493 384 493 368 488 c 2,61,-1
 310 468 l 1,62,-1
 310 268 l 1,63,-1
 350 281 l 2,64,65
 352 282 352 282 359 283 c 0,66,67
 369 283 369 283 376.5 275.5 c 128,-1,68
 384 268 384 268 384 258 c 2,69,-1
 384 183 l 2,70,71
 384 167 384 167 368 160 c 2,72,-1
 310 139 l 1,73,-1
 310 -59 l 2,0,1
264 450 m 1,74,-1
 160 413 l 1,75,-1
 160 213 l 1,76,-1
 264 250 l 1,77,-1
 264 450 l 1,74,-1
EndSplineSet
Validated: 1
EndChar

StartChar: mscore.flat
Encoding: 57613 57613 13
Width: 364
Flags: W
LayerCount: 2
Fore
SplineSet
108 220 m 2,0,-1
 106 137 l 1,1,-1
 106 123 l 2,2,3
 106 77 106 77 112 41 c 1,4,5
 148 72 148 72 168.5 92 c 128,-1,6
 189 112 189 112 208.5 146.5 c 128,-1,7
 228 181 228 181 228 214.5 c 128,-1,8
 228 248 228 248 213.5 273 c 128,-1,9
 199 298 199 298 174 298 c 0,10,11
 145 298 145 298 127 275 c 128,-1,12
 109 252 109 252 108 220 c 2,0,-1
55 -4 m 2,13,-1
 40 740 l 1,14,15
 56 750 56 750 74 750 c 128,-1,16
 92 750 92 750 108 740 c 1,17,-1
 99 308 l 1,18,19
 149 350 149 350 213 351 c 0,20,21
 261 351 261 351 292.5 312.5 c 128,-1,22
 324 274 324 274 324 223 c 0,23,24
 324 188 324 188 304 156 c 128,-1,25
 284 124 284 124 262 105.5 c 128,-1,26
 240 87 240 87 199.5 57 c 128,-1,27
 159 27 159 27 140 12 c 0,28,29
 134 7 134 7 124 -6.5 c 128,-1,30
 114 -20 114 -20 104.5 -28 c 128,-1,31
 95 -36 95 -36 84 -36 c 0,32,33
 72 -36 72 -36 63.5 -27 c 128,-1,34
 55 -18 55 -18 55 -4 c 2,13,-1
EndSplineSet
Validated: 1
EndChar

StartChar: mscore.natural
Encoding: 57614 57614 14
Width: 308
Flags: W
LayerCount: 2
Fore
SplineSet
40 811 m 1,0,1
 58 820 58 820 72 820 c 128,-1,2
 86 820 86 820 104 811 c 1,3,-1
 100 582 l 1,4,-1
 232 607 l 1,5,-1
 236 607 l 2,6,7
 258 607 258 607 259 586 c 2,8,-1
 268 -126 l 1,9,10
 250 -135 250 -135 236 -135 c 0,11,12
 222 -134 222 -134 205 -126 c 1,13,-1
 209 102 l 1,14,-1
 76 77 l 1,15,-1
 72 77 l 2,16,17
 50 76 50 76 50 98 c 2,18,-1
 40 811 l 1,0,1
210 224 m 1,19,-1
 214 482 l 1,20,-1
 99 461 l 1,21,-1
 95 202 l 1,22,-1
 210 224 l 1,19,-1
EndSplineSet
Validated: 1
EndChar

StartChar: mscore.segno
Encoding: 57703 57703 15
Width: 580
Flags: W
LayerCount: 2
Fore
SplineSet
88 230 m 128,-1,1
 88 243 88 243 96.5 251.5 c 128,-1,2
 105 260 105 260 118 260 c 128,-1,3
 131 260 131 260 139.5 251.5 c 128,-1,4
 148 243 148 243 148 230 c 128,-1,5
 148 217 148 217 139.5 208.5 c 128,-1,6
 131 200 131 200 118 200 c 128,-1,7
 105 200 105 200 96.5 208.5 c 128,-1,0
 88 217 88 217 88 230 c 128,-1,1
432 330 m 128,-1,9
 432 343 432 343 440.5 351.5 c 128,-1,10
 449 360 449 360 462 360 c 128,-1,11
 475 360 475 360 483.5 351.5 c 128,-1,12
 492 343 492 343 492 330 c 128,-1,13
 492 317 492 317 483.5 308.5 c 128,-1,14
 475 300 475 300 462 300 c 128,-1,15
 449 300 449 300 440.5 308.5 c 128,-1,8
 432 317 432 317 432 330 c 128,-1,9
255 53 m 0,16,17
 255 112 255 112 309 112 c 0,18,19
 337 112 337 112 352 93.5 c 128,-1,20
 367 75 367 75 367 50 c 0,21,22
 367 29 367 29 356 11 c 128,-1,23
 345 -7 345 -7 327 -14 c 1,24,25
 333 -36 333 -36 352.5 -50.5 c 128,-1,26
 372 -65 372 -65 396 -65 c 0,27,28
 424 -65 424 -65 443 -43 c 128,-1,29
 462 -21 462 -21 462 10 c 0,30,31
 462 130 462 130 290 229 c 1,32,-1
 100 -95 l 1,33,-1
 40 -95 l 1,34,-1
 244 254 l 1,35,36
 150 306 150 306 95 364 c 128,-1,37
 40 422 40 422 40 499 c 0,38,39
 40 564 40 564 82 609.5 c 128,-1,40
 124 655 124 655 184 655 c 0,41,42
 243 655 243 655 284 611.5 c 128,-1,43
 325 568 325 568 325 507 c 0,44,45
 325 448 325 448 271 448 c 0,46,47
 243 448 243 448 228 466.5 c 128,-1,48
 213 485 213 485 213 510 c 0,49,50
 213 531 213 531 224 549 c 128,-1,51
 235 567 235 567 253 574 c 1,52,53
 247 596 247 596 227.5 610.5 c 128,-1,54
 208 625 208 625 184 625 c 0,55,56
 156 625 156 625 137 603 c 128,-1,57
 118 581 118 581 118 550 c 0,58,59
 118 430 118 430 290 331 c 1,60,-1
 480 655 l 1,61,-1
 540 655 l 1,62,-1
 336 306 l 1,63,64
 430 254 430 254 485 196 c 128,-1,65
 540 138 540 138 540 61 c 0,66,67
 540 -4 540 -4 498 -49.5 c 128,-1,68
 456 -95 456 -95 396 -95 c 0,69,70
 337 -95 337 -95 296 -51.5 c 128,-1,71
 255 -8 255 -8 255 53 c 0,16,17
EndSplineSet
Validated: 1
EndChar

StartChar: mscore.coda
Encoding: 57704 57704 16
Width: 686
Flags: W
LayerCount: 2
Fore
SplineSet
361 -126 m 2,0,1
 361 -133 361 -133 355.5 -138.5 c 128,-1,2
 350 -144 350 -144 343 -144 c 128,-1,3
 336 -144 336 -144 330.5 -138.5 c 128,-1,4
 325 -133 325 -133 325 -126 c 2,5,-1
 325 -19 l 1,6,7
 242 -11 242 -11 194.5 70.5 c 128,-1,8
 147 152 147 152 144 262 c 1,9,-1
 38 262 l 2,10,11
 31 262 31 262 25.5 267.5 c 128,-1,12
 20 273 20 273 20 280 c 128,-1,13
 20 287 20 287 25.5 292.5 c 128,-1,14
 31 298 31 298 38 298 c 2,15,-1
 144 298 l 1,16,17
 148 408 148 408 195 489 c 128,-1,18
 242 570 242 570 325 579 c 1,19,-1
 325 686 l 2,20,21
 325 693 325 693 330.5 698.5 c 128,-1,22
 336 704 336 704 343 704 c 128,-1,23
 350 704 350 704 355.5 698.5 c 128,-1,24
 361 693 361 693 361 686 c 2,25,-1
 361 579 l 1,26,27
 444 571 444 571 491.5 489.5 c 128,-1,28
 539 408 539 408 542 298 c 1,29,-1
 648 298 l 2,30,31
 655 298 655 298 660.5 292.5 c 128,-1,32
 666 287 666 287 666 280 c 128,-1,33
 666 273 666 273 660.5 267.5 c 128,-1,34
 655 262 655 262 648 262 c 2,35,-1
 542 262 l 1,36,37
 538 152 538 152 491 71 c 128,-1,38
 444 -10 444 -10 361 -19 c 1,39,-1
 361 -126 l 2,0,1
361 298 m 1,40,-1
 455 298 l 1,41,42
 455 348 455 348 451 382.5 c 128,-1,43
 447 417 447 417 439 455.5 c 128,-1,44
 431 494 431 494 411 516 c 128,-1,45
 391 538 391 538 361 543 c 1,46,-1
 361 298 l 1,40,-1
361 262 m 1,47,-1
 361 17 l 1,48,49
 391 22 391 22 411 44 c 128,-1,50
 431 66 431 66 439 104.5 c 128,-1,51
 447 143 447 143 451 177.5 c 128,-1,52
 455 212 455 212 455 262 c 1,53,-1
 361 262 l 1,47,-1
325 298 m 1,54,-1
 325 543 l 1,55,56
 295 538 295 538 275 516 c 128,-1,57
 255 494 255 494 247 455.5 c 128,-1,58
 239 417 239 417 235 382.5 c 128,-1,59
 231 348 231 348 231 298 c 1,60,-1
 325 298 l 1,54,-1
325 262 m 1,61,-1
 231 262 l 1,62,63
 231 212 231 212 235 177.5 c 128,-1,64
 239 143 239 143 247 104.5 c 128,-1,65
 255 66 255 66 275 44 c 128,-1,66
 295 22 295 22 325 17 c 1,67,-1
 325 262 l 1,61,-1
EndSplineSet
Validated: 1
EndChar

StartChar: mscore.varcoda
Encoding: 57705 57705 17
Width: 686
Flags: W
LayerCount: 2
Fore
SplineSet
361 -126 m 2,0,1
 361 -133 361 -133 355.5 -138.5 c 128,-1,2
 350 -144 350 -144 343 -144 c 128,-1,3
 336 -144 336 -144 330.5 -138.5 c 128,-1,4
 325 -133 325 -133 325 -126 c 2,5,-1
 325 -20 l 1,6,-1
 236 -20 l 1,7,-1
 155 -20 l 2,8,9
 143 -20 143 -20 143 -8 c 2,10,-1
 143 262 l 1,11,-1
 38 262 l 2,12,13
 31 262 31 262 25.5 267.5 c 128,-1,14
 20 273 20 273 20 280 c 128,-1,15
 20 287 20 287 25.5 292.5 c 128,-1,16
 31 298 31 298 38 298 c 2,17,-1
 143 298 l 1,18,-1
 143 568 l 2,19,20
 143 580 143 580 155 580 c 2,21,-1
 325 580 l 1,22,-1
 325 686 l 2,23,24
 325 693 325 693 330.5 698.5 c 128,-1,25
 336 704 336 704 343 704 c 128,-1,26
 350 704 350 704 355.5 698.5 c 128,-1,27
 361 693 361 693 361 686 c 2,28,-1
 361 580 l 1,29,-1
 531 580 l 2,30,31
 543 580 543 580 543 568 c 2,32,-1
 543 298 l 1,33,-1
 648 298 l 2,34,35
 655 298 655 298 660.5 292.5 c 128,-1,36
 666 287 666 287 666 280 c 128,-1,37
 666 273 666 273 660.5 267.5 c 128,-1,38
 655 262 655 262 648 262 c 2,39,-1
 543 262 l 1,40,-1
 543 -8 l 2,41,42
 543 -20 543 -20 531 -20 c 2,43,-1
 450 -20 l 1,44,-1
 361 -20 l 1,45,-1
 361 -126 l 2,0,1
361 298 m 1,46,-1
 438 298 l 1,47,-1
 438 544 l 1,48,-1
 361 544 l 1,49,-1
 361 298 l 1,46,-1
361 262 m 1,50,-1
 361 16 l 1,51,-1
 438 16 l 1,52,-1
 438 262 l 1,53,-1
 361 262 l 1,50,-1
325 298 m 1,54,-1
 325 544 l 1,55,-1
 248 544 l 1,56,-1
 248 298 l 1,57,-1
 325 298 l 1,54,-1
325 262 m 1,58,-1
 248 262 l 1,59,-1
 248 16 l 1,60,-1
 325 16 l 1,61,-1
 325 262 l 1,58,-1
EndSplineSet
Validated: 1
EndChar

StartChar: plus
Encoding: 43 43 19
Width: 250
Flags: W
LayerCount: 2
Fore
SplineSet
125 125 m 128,-1,1
 114 125 114 125 107 132.5 c 128,-1,2
 100 140 100 140 100 150 c 2,3,-1
 100 225 l 1,4,-1
 25 225 l 2,5,6
 14 225 14 225 7 232.5 c 128,-1,7
 0 240 0 240 0 250 c 128,-1,8
 0 260 0 260 7 267.5 c 128,-1,9
 14 275 14 275 25 275 c 2,10,-1
 100 275 l 1,11,-1
 100 350 l 2,12,13
 100 360 100 360 107 367.5 c 128,-1,14
 114 375 114 375 125 375 c 128,-1,15
 136 375 136 375 143 367.5 c 128,-1,16
 150 360 150 360 150 350 c 2,17,-1
 150 275 l 1,18,-1
 225 275 l 2,19,20
 236 275 236 275 243 267.5 c 128,-1,21
 250 260 250 260 250 250 c 128,-1,22
 250 240 250 240 243 232.5 c 128,-1,23
 236 225 236 225 225 225 c 2,24,-1
 150 225 l 1,25,-1
 150 150 l 2,26,27
 150 140 150 140 143 132.5 c 128,-1,0
 136 125 136 125 125 125 c 128,-1,1
EndSplineSet
Validated: 1
EndChar

StartChar: comma
Encoding: 44 44 20
Width: 115
Flags: W
LayerCount: 2
Fore
SplineSet
66 -36 m 0,0,1
 66 -19 66 -19 55.5 -8.5 c 128,-1,2
 45 2 45 2 33 6 c 128,-1,3
 21 10 21 10 10.5 23 c 128,-1,4
 0 36 0 36 0 57 c 0,5,6
 0 81 0 81 16.5 98 c 128,-1,7
 33 115 33 115 57 115 c 128,-1,8
 81 115 81 115 98 98 c 128,-1,9
 115 81 115 81 115 57 c 0,10,11
 115 -27 115 -27 57 -149 c 0,12,13
 53 -157 53 -157 45 -157 c 0,14,15
 39 -157 39 -157 34 -153 c 128,-1,16
 29 -149 29 -149 29 -143 c 0,17,18
 29 -140 29 -140 47.5 -100 c 128,-1,19
 66 -60 66 -60 66 -36 c 0,0,1
EndSplineSet
Validated: 1
EndChar

StartChar: hyphen
Encoding: 45 45 21
Width: 167
Flags: W
LayerCount: 2
Fore
SplineSet
152 152 m 2,0,-1
 15 152 l 2,1,2
 9 152 9 152 4.5 156.5 c 128,-1,3
 0 161 0 161 0 167 c 0,4,5
 0 181 0 181 15 181 c 2,6,-1
 152 181 l 2,7,8
 167 181 167 181 167 167 c 0,9,10
 167 161 167 161 162.5 156.5 c 128,-1,11
 158 152 158 152 152 152 c 2,0,-1
EndSplineSet
Validated: 1
EndChar

StartChar: period
Encoding: 46 46 22
Width: 115
Flags: W
LayerCount: 2
Fore
SplineSet
0 57 m 128,-1,1
 0 81 0 81 16.5 98 c 128,-1,2
 33 115 33 115 57 115 c 128,-1,3
 81 115 81 115 98 98 c 128,-1,4
 115 81 115 81 115 57 c 128,-1,5
 115 33 115 33 98 16.5 c 128,-1,6
 81 0 81 0 57 0 c 128,-1,7
 33 0 33 0 16.5 16.5 c 128,-1,0
 0 33 0 33 0 57 c 128,-1,1
EndSplineSet
Validated: 1
EndChar

StartChar: zero
Encoding: 48 48 23
Width: 590
Flags: W
LayerCount: 2
Fore
SplineSet
293 663 m 128,-1,1
 262 663 262 663 242.5 643.5 c 128,-1,2
 223 624 223 624 214 586.5 c 128,-1,3
 205 549 205 549 202 513.5 c 128,-1,4
 199 478 199 478 199 429 c 2,5,6
 199 275 l 2,7,8
 199 225 199 225 202 190 c 128,-1,9
 205 155 205 155 214 117.5 c 128,-1,10
 223 80 223 80 242.5 60.5 c 128,-1,11
 262 41 262 41 293 41 c 128,-1,12
 324 41 324 41 343.5 60.5 c 128,-1,13
 363 80 363 80 372 117.5 c 128,-1,14
 381 155 381 155 384 190 c 128,-1,15
 387 225 387 225 387 275 c 2,16,-1
 387 429 l 2,17,18
 387 478 387 478 384 513.5 c 128,-1,19
 381 549 381 549 372 586.5 c 128,-1,20
 363 624 363 624 343.5 643.5 c 128,-1,0
 324 663 324 663 293 663 c 128,-1,1
293 704 m 128,-1,22
 410 704 410 704 481 599 c 128,-1,23
 552 494 552 494 552 352 c 128,-1,24
 552 210 552 210 481 105 c 128,-1,25
 410 0 410 0 293 0 c 128,-1,26
 176 0 176 0 105.5 105 c 128,-1,27
 35 210 35 210 35 352 c 128,-1,28
 35 494 35 494 105.5 599 c 128,-1,21
 176 704 176 704 293 704 c 128,-1,22
EndSplineSet
Validated: 1
EndChar

StartChar: one
Encoding: 49 49 24
Width: 590
Flags: W
LayerCount: 2
Fore
SplineSet
306 686 m 0,0,1
 323 686 323 686 346.5 695.5 c 128,-1,2
 370 705 370 705 371 705 c 0,3,4
 388 705 388 705 388 681 c 2,5,-1
 388 165 l 2,6,7
 388 111 388 111 417 71.5 c 128,-1,8
 446 32 446 32 491 32 c 0,9,10
 508 32 508 32 508 17 c 0,11,12
 508 0 508 0 491 0 c 0,13,14
 460 0 460 0 398.5 9 c 128,-1,15
 337 18 337 18 306 18 c 128,-1,16
 275 18 275 18 214 9 c 128,-1,17
 153 0 153 0 122 0 c 0,18,19
 105 0 105 0 105 17 c 0,20,21
 105 32 105 32 122 32 c 0,22,23
 167 32 167 32 196 71.5 c 128,-1,24
 225 111 225 111 225 165 c 2,25,-1
 225 510 l 2,26,27
 225 521 225 521 217 528.5 c 128,-1,28
 209 536 209 536 200.5 536 c 128,-1,29
 192 536 192 536 187 527 c 2,30,-1
 97 335 l 2,31,32
 91 322 91 322 80 322 c 0,33,34
 72 322 72 322 64.5 328 c 128,-1,35
 57 334 57 334 57 342 c 0,36,37
 57 346 57 346 60 352 c 2,38,-1
 225 704 l 2,39,40
 226 708 226 708 231.5 708 c 128,-1,41
 237 708 237 708 261.5 697 c 128,-1,42
 286 686 286 686 306 686 c 0,0,1
EndSplineSet
Validated: 1
EndChar

StartChar: two
Encoding: 50 50 25
Width: 590
Flags: W
LayerCount: 2
Fore
SplineSet
358 0 m 0,0,1
 314 0 314 0 282.5 15 c 128,-1,2
 251 30 251 30 237 46.5 c 128,-1,3
 223 63 223 63 202 78 c 128,-1,4
 181 93 181 93 156 93 c 0,5,6
 122 93 122 93 96.5 72 c 128,-1,7
 71 51 71 51 68 15 c 1,8,9
 65 0 65 0 53 0 c 0,10,11
 36 0 36 0 36 15 c 0,12,13
 36 67 36 67 60.5 111 c 128,-1,14
 85 155 85 155 121.5 184.5 c 128,-1,15
 158 214 158 214 201 248 c 128,-1,16
 244 282 244 282 281 313.5 c 128,-1,17
 318 345 318 345 342.5 393.5 c 128,-1,18
 367 442 367 442 367 500 c 0,19,20
 367 572 367 572 343 622 c 128,-1,21
 319 672 319 672 268 672 c 0,22,23
 238 672 238 672 217.5 657.5 c 128,-1,24
 197 643 197 643 197 620 c 0,25,26
 197 600 197 600 221.5 571.5 c 128,-1,27
 246 543 246 543 246 524 c 0,28,29
 246 483 246 483 217.5 455 c 128,-1,30
 189 427 189 427 150 427 c 0,31,32
 109 427 109 427 81 455.5 c 128,-1,33
 53 484 53 484 53 524 c 0,34,35
 53 603 53 603 116.5 653.5 c 128,-1,36
 180 704 180 704 268 704 c 0,37,38
 374 704 374 704 453 647 c 128,-1,39
 532 590 532 590 532 500 c 0,40,41
 532 439 532 439 510 394 c 128,-1,42
 488 349 488 349 447 321.5 c 128,-1,43
 406 294 406 294 365.5 275 c 128,-1,44
 325 256 325 256 270 233.5 c 128,-1,45
 215 211 215 211 181 190 c 1,46,47
 199 194 199 194 218 194 c 0,48,49
 281 194 281 194 350 152.5 c 128,-1,50
 419 111 419 111 458 111 c 0,51,52
 481 111 481 111 495 119.5 c 128,-1,53
 509 128 509 128 513.5 138 c 128,-1,54
 518 148 518 148 523.5 156.5 c 128,-1,55
 529 165 529 165 536 165 c 0,56,57
 553 165 553 165 553 148 c 0,58,59
 553 111 553 111 499 55.5 c 128,-1,60
 445 0 445 0 358 0 c 0,0,1
EndSplineSet
Validated: 1
EndChar

StartChar: three
Encoding: 51 51 26
Width: 590
Flags: W
LayerCount: 2
Fore
SplineSet
430 373 m 0,0,1
 430 359 430 359 445.5 346.5 c 128,-1,2
 461 334 461 334 479.5 322.5 c 128,-1,3
 498 311 498 311 513.5 278.5 c 128,-1,4
 529 246 529 246 529 197 c 0,5,6
 529 103 529 103 458 51.5 c 128,-1,7
 387 0 387 0 277 0 c 0,8,9
 190 0 190 0 125 43.5 c 128,-1,10
 60 87 60 87 60 159 c 0,11,12
 60 197 60 197 87.5 224.5 c 128,-1,13
 115 252 115 252 153 252 c 128,-1,14
 191 252 191 252 217.5 224.5 c 128,-1,15
 244 197 244 197 244 159 c 0,16,17
 244 141 244 141 216 121 c 128,-1,18
 188 101 188 101 188 84 c 0,19,20
 188 57 188 57 214 44.5 c 128,-1,21
 240 32 240 32 277 32 c 0,22,23
 325 32 325 32 345.5 80 c 128,-1,24
 366 128 366 128 366 197 c 2,25,-1
 366 220 l 2,26,27
 366 266 366 266 363 290 c 128,-1,28
 360 314 360 314 344 333 c 128,-1,29
 328 352 328 352 295 352 c 2,30,-1
 182 352 l 2,31,32
 162 352 162 352 163 373 c 0,33,34
 163 393 163 393 182 393 c 2,35,-1
 295 393 l 2,36,37
 315 393 315 393 329 400.5 c 128,-1,38
 343 408 343 408 350 418.5 c 128,-1,39
 357 429 357 429 360.5 449.5 c 128,-1,40
 364 470 364 470 365 486.5 c 128,-1,41
 366 503 366 503 366 532 c 2,42,-1
 366 543 l 2,43,44
 366 671 366 671 271 672 c 0,45,46
 188 672 188 672 188 625 c 0,47,48
 188 610 188 610 213.5 592 c 128,-1,49
 239 574 239 574 239 559 c 0,50,51
 239 525 239 525 215 501 c 128,-1,52
 191 477 191 477 157 477 c 128,-1,53
 123 477 123 477 100 501 c 128,-1,54
 77 525 77 525 77 559 c 0,55,56
 77 625 77 625 134.5 664.5 c 128,-1,57
 192 704 192 704 271 704 c 0,58,59
 375 704 375 704 442 664 c 128,-1,60
 509 624 509 624 509 543 c 0,61,62
 509 485 509 485 497 453.5 c 128,-1,63
 485 422 485 422 469.5 415 c 128,-1,64
 454 408 454 408 442 399 c 128,-1,65
 430 390 430 390 430 373 c 0,0,1
EndSplineSet
Validated: 1
EndChar

StartChar: four
Encoding: 52 52 27
Width: 590
Flags: W
LayerCount: 2
Fore
SplineSet
328 686 m 0,0,1
 360 686 360 686 397 696 c 2,2,-1
 435 705 l 1,3,4
 446 705 446 705 452.5 697 c 128,-1,5
 459 689 459 689 452 681 c 2,6,-1
 52 217 l 1,7,-1
 287 217 l 1,8,-1
 287 401 l 2,9,10
 287 421 287 421 297.5 431.5 c 128,-1,11
 308 442 308 442 325 448.5 c 128,-1,12
 342 455 342 455 368.5 486.5 c 128,-1,13
 395 518 395 518 421 573 c 0,14,15
 425 581 425 581 433 582 c 0,16,17
 451 582 451 582 452 562 c 2,18,-1
 452 217 l 1,19,-1
 553 217 l 2,20,21
 574 217 574 217 574 197 c 0,22,23
 574 176 574 176 553 176 c 2,24,-1
 452 176 l 1,25,-1
 452 165 l 2,26,27
 452 111 452 111 480 71.5 c 128,-1,28
 508 32 508 32 553 32 c 0,29,30
 570 32 570 32 570 17 c 0,31,32
 570 0 570 0 553 0 c 0,33,34
 522 0 522 0 461 9 c 128,-1,35
 400 18 400 18 369 18 c 128,-1,36
 338 18 338 18 276.5 9 c 128,-1,37
 215 0 215 0 184 0 c 0,38,39
 167 0 167 0 167 17 c 0,40,41
 167 32 167 32 184 32 c 0,42,43
 229 32 229 32 258 71.5 c 128,-1,44
 287 111 287 111 287 165 c 2,45,-1
 287 176 l 1,46,-1
 52 176 l 2,47,48
 29 176 29 176 18.5 186.5 c 128,-1,49
 8 197 8 197 8 208 c 0,50,51
 8 212 8 212 28.5 237.5 c 128,-1,52
 49 263 49 263 78 305.5 c 128,-1,53
 107 348 107 348 135.5 401.5 c 128,-1,54
 164 455 164 455 184.5 530 c 128,-1,55
 205 605 205 605 205 681 c 0,56,57
 205 704 205 704 224 704 c 0,58,59
 227 704 227 704 242 700 c 128,-1,60
 257 696 257 696 281 691 c 128,-1,61
 305 686 305 686 328 686 c 0,0,1
EndSplineSet
Validated: 1
EndChar

StartChar: five
Encoding: 53 53 28
Width: 590
Flags: W
LayerCount: 2
Fore
SplineSet
111 704 m 0,0,1
 112 704 112 704 122.5 702 c 128,-1,2
 133 700 133 700 151.5 698 c 128,-1,3
 170 696 170 696 193.5 693 c 128,-1,4
 217 690 217 690 247 688 c 128,-1,5
 277 686 277 686 306.5 686 c 128,-1,6
 336 686 336 686 367 688 c 128,-1,7
 398 690 398 690 422 693 c 128,-1,8
 446 696 446 696 464.5 698 c 128,-1,9
 483 700 483 700 494 702 c 128,-1,10
 505 704 505 704 507 704 c 4,11,12
 520 704 520 704 526 696 c 128,-1,13
 532 688 532 688 525 681 c 0,14,15
 395 551 395 551 155 551 c 0,16,17
 145 551 145 551 138 543.5 c 128,-1,18
 131 536 131 536 131 527 c 2,19,-1
 131 391 l 1,20,21
 192 452 192 452 279 452 c 0,22,23
 404 452 404 452 472 395.5 c 128,-1,24
 540 339 540 339 540 225 c 0,25,26
 540 128 540 128 463 64 c 128,-1,27
 386 0 386 0 279 0 c 0,28,29
 186 0 186 0 117.5 42 c 128,-1,30
 49 84 49 84 49 159 c 0,31,32
 49 197 49 197 76.5 224.5 c 128,-1,33
 104 252 104 252 142 252 c 128,-1,34
 180 252 180 252 206.5 224.5 c 128,-1,35
 233 197 233 197 233 159 c 0,36,37
 233 141 233 141 205 121 c 128,-1,38
 177 101 177 101 177 84 c 0,39,40
 177 32 177 32 279 32 c 0,41,42
 377 32 377 32 377 225 c 0,43,44
 377 411 377 411 279 411 c 0,45,46
 234 411 234 411 200.5 400 c 128,-1,47
 167 389 167 389 154 375.5 c 128,-1,48
 141 362 141 362 129.5 350.5 c 128,-1,49
 118 339 118 339 111 339 c 0,50,51
 90 339 90 339 90 360 c 2,52,-1
 90 681 l 2,53,54
 90 691 90 691 96.5 697.5 c 128,-1,55
 103 704 103 704 111 704 c 0,0,1
EndSplineSet
Validated: 1
EndChar

StartChar: six
Encoding: 54 54 29
Width: 590
Flags: W
LayerCount: 2
Fore
SplineSet
288 360 m 0,0,1
 263 360 263 360 247 350.5 c 128,-1,2
 231 341 231 341 224 318.5 c 128,-1,3
 217 296 217 296 215.5 275.5 c 128,-1,4
 214 255 214 255 214 217 c 2,5,-1
 214 197 l 1,6,-1
 214 176 l 2,7,8
 214 138 214 138 215.5 117.5 c 128,-1,9
 217 97 217 97 224 74.5 c 128,-1,10
 231 52 231 52 247 42 c 128,-1,11
 263 32 263 32 288 32 c 0,12,13
 318 32 318 32 335.5 43.5 c 128,-1,14
 353 55 353 55 361.5 81 c 128,-1,15
 370 107 370 107 372 131.5 c 128,-1,16
 374 156 374 156 374 197 c 0,17,18
 374 280 374 280 358.5 320 c 128,-1,19
 343 360 343 360 288 360 c 0,0,1
214 375 m 1,20,21
 259 393 259 393 288 393 c 0,22,23
 399 393 399 393 463.5 343.5 c 128,-1,24
 528 294 528 294 528 197 c 128,-1,25
 528 100 528 100 463 50 c 128,-1,26
 398 0 398 0 288 0 c 0,27,28
 175 0 175 0 112 104 c 128,-1,29
 49 208 49 208 49 352 c 0,30,31
 49 494 49 494 123 599 c 128,-1,32
 197 704 197 704 317 704 c 0,33,34
 396 704 396 704 453.5 664 c 128,-1,35
 511 624 511 624 511 559 c 0,36,37
 511 521 511 521 484 493.5 c 128,-1,38
 457 466 457 466 419 466 c 128,-1,39
 381 466 381 466 353.5 493.5 c 128,-1,40
 326 521 326 521 326 559 c 0,41,42
 326 576 326 576 353.5 593.5 c 128,-1,43
 381 611 381 611 381 628 c 0,44,45
 381 648 381 648 361.5 660 c 128,-1,46
 342 672 342 672 317 672 c 0,47,48
 254 672 254 672 232.5 620.5 c 128,-1,49
 211 569 211 569 211 476 c 0,50,51
 211 459 211 459 212.5 425.5 c 128,-1,52
 214 392 214 392 214 375 c 1,20,21
EndSplineSet
Validated: 1
EndChar

StartChar: seven
Encoding: 55 55 30
Width: 590
Flags: W
LayerCount: 2
Fore
SplineSet
154 577 m 0,0,1
 133 577 133 577 117 552.5 c 128,-1,2
 101 528 101 528 101 479 c 2,3,-1
 101 373 l 2,4,5
 101 352 101 352 81 352 c 0,6,7
 60 352 60 352 60 373 c 2,8,-1
 60 683 l 2,9,10
 60 704 60 704 81 704 c 0,11,12
 101 704 101 704 101 683 c 2,13,-1
 101 663 l 2,14,15
 101 657 101 657 105 651 c 128,-1,16
 109 645 109 645 115 642 c 128,-1,17
 121 639 121 639 122 642 c 0,18,19
 167 704 167 704 232 704 c 0,20,21
 286 704 286 704 333 664.5 c 128,-1,22
 380 625 380 625 411 625 c 0,23,24
 445 625 445 625 474.5 645 c 128,-1,25
 504 665 504 665 521.5 684.5 c 128,-1,26
 539 704 539 704 544 704 c 0,27,28
 552 704 552 704 559.5 698.5 c 128,-1,29
 567 693 567 693 567 684 c 0,30,31
 567 678 567 678 531.5 625 c 128,-1,32
 496 572 496 572 453.5 502 c 128,-1,33
 411 432 411 432 375.5 327 c 128,-1,34
 340 222 340 222 340 127 c 0,35,36
 340 103 340 103 343 79 c 128,-1,37
 346 55 346 55 348 41.5 c 128,-1,38
 350 28 350 28 350.5 16 c 128,-1,39
 351 4 351 4 347 0 c 128,-1,40
 343 -4 343 -4 333 -4 c 1,41,-1
 294 7 l 2,42,43
 253 18 253 18 225 18 c 0,44,45
 195 18 195 18 157 7 c 128,-1,46
 119 -4 119 -4 115 -4 c 0,47,48
 105 -4 105 -4 99.5 3.5 c 128,-1,49
 94 11 94 11 98 20 c 0,50,51
 149 141 149 141 221.5 255.5 c 128,-1,52
 294 370 294 370 402 520 c 1,53,54
 361 497 361 497 319 497 c 0,55,56
 274 497 274 497 229 537 c 128,-1,57
 184 577 184 577 154 577 c 0,0,1
EndSplineSet
Validated: 1
EndChar

StartChar: eight
Encoding: 56 56 31
Width: 590
Flags: W
LayerCount: 2
Fore
SplineSet
398 406 m 1,0,1
 467 481 467 481 467 549 c 0,2,3
 467 605 467 605 418.5 638.5 c 128,-1,4
 370 672 370 672 302 672 c 0,5,6
 254 672 254 672 225 641.5 c 128,-1,7
 196 611 196 611 196 572 c 0,8,9
 196 524 196 524 239 498 c 2,10,-1
 398 406 l 1,0,1
440 382 m 1,11,12
 557 314 557 314 557 203 c 0,13,14
 557 120 557 120 486 60 c 128,-1,15
 415 0 415 0 291 0 c 0,16,17
 187 0 187 0 110 55 c 128,-1,18
 33 110 33 110 33 197 c 0,19,20
 33 229 33 229 52 263 c 128,-1,21
 71 297 71 297 87 314 c 128,-1,22
 103 331 103 331 140 366 c 1,23,24
 54 425 54 425 54 515 c 0,25,26
 54 592 54 592 120 648 c 128,-1,27
 186 704 186 704 302 704 c 0,28,29
 394 704 394 704 461.5 662.5 c 128,-1,30
 529 621 529 621 529 549 c 0,31,32
 529 474 529 474 440 382 c 1,11,12
182 341 m 1,33,34
 95 265 95 265 95 197 c 0,35,36
 95 127 95 127 153.5 79.5 c 128,-1,37
 212 32 212 32 291 32 c 0,38,39
 346 32 346 32 379 67.5 c 128,-1,40
 412 103 412 103 412 149 c 0,41,42
 412 208 412 208 362 237 c 2,43,-1
 182 341 l 1,33,34
EndSplineSet
Validated: 1
EndChar

StartChar: nine
Encoding: 57 57 32
Width: 590
Flags: W
LayerCount: 2
Fore
SplineSet
297 344 m 0,0,1
 322 344 322 344 338.5 353.5 c 128,-1,2
 355 363 355 363 362 385.5 c 128,-1,3
 369 408 369 408 370.5 428.5 c 128,-1,4
 372 449 372 449 372 487 c 2,5,-1
 372 507 l 1,6,-1
 372 528 l 2,7,8
 372 566 372 566 370.5 586.5 c 128,-1,9
 369 607 369 607 362 629.5 c 128,-1,10
 355 652 355 652 339 662 c 128,-1,11
 323 672 323 672 297 672 c 0,12,13
 267 672 267 672 250 660.5 c 128,-1,14
 233 649 233 649 224.5 623 c 128,-1,15
 216 597 216 597 213.5 572.5 c 128,-1,16
 211 548 211 548 211 507 c 0,17,18
 211 424 211 424 226.5 384 c 128,-1,19
 242 344 242 344 297 344 c 0,0,1
372 329 m 1,20,21
 327 311 327 311 297 311 c 0,22,23
 186 311 186 311 122 360.5 c 128,-1,24
 58 410 58 410 58 507 c 128,-1,25
 58 604 58 604 123 654 c 128,-1,26
 188 704 188 704 297 704 c 0,27,28
 410 704 410 704 473.5 600 c 128,-1,29
 537 496 537 496 537 352 c 0,30,31
 537 210 537 210 463 105 c 128,-1,32
 389 0 389 0 269 0 c 0,33,34
 190 0 190 0 132.5 40 c 128,-1,35
 75 80 75 80 75 145 c 0,36,37
 75 183 75 183 101.5 210.5 c 128,-1,38
 128 238 128 238 166 238 c 128,-1,39
 204 238 204 238 231.5 210.5 c 128,-1,40
 259 183 259 183 259 145 c 0,41,42
 259 128 259 128 231.5 110.5 c 128,-1,43
 204 93 204 93 204 76 c 0,44,45
 204 56 204 56 224 44 c 128,-1,46
 244 32 244 32 269 32 c 0,47,48
 332 32 332 32 353.5 83.5 c 128,-1,49
 375 135 375 135 375 228 c 0,50,51
 375 245 375 245 373.5 278.5 c 128,-1,52
 372 312 372 312 372 329 c 1,20,21
EndSplineSet
Validated: 1
EndChar

StartChar: f
Encoding: 102 102 33
Width: 530
Flags: W
LayerCount: 2
Fore
SplineSet
373 471 m 1,0,-1
 290 200 l 2,1,2
 271 138 271 138 237 70 c 128,-1,3
 203 2 203 2 158 -61 c 128,-1,4
 113 -124 113 -124 56.5 -164 c 128,-1,5
 0 -204 0 -204 -54 -204 c 0,6,7
 -111 -204 -111 -204 -151.5 -183.5 c 128,-1,8
 -192 -163 -192 -163 -192 -121 c 0,9,10
 -192 -71 -192 -71 -170.5 -35 c 128,-1,11
 -149 1 -149 1 -110 1 c 0,12,13
 -82 1 -82 1 -61 -19 c 128,-1,14
 -40 -39 -40 -39 -40 -68 c 0,15,16
 -40 -84 -40 -84 -49 -95 c 128,-1,17
 -58 -106 -58 -106 -70 -111 c 128,-1,18
 -82 -116 -82 -116 -91 -127 c 128,-1,19
 -100 -138 -100 -138 -100 -154 c 0,20,21
 -100 -171 -100 -171 -65 -171 c 2,22,-1
 -54 -171 l 2,23,24
 -34 -171 -34 -171 -17.5 -161.5 c 128,-1,25
 -1 -152 -1 -152 9 -140 c 128,-1,26
 19 -128 19 -128 27.5 -104.5 c 128,-1,27
 36 -81 36 -81 40 -64.5 c 128,-1,28
 44 -48 44 -48 51 -17.5 c 128,-1,29
 58 13 58 13 61 26 c 2,30,-1
 172 471 l 1,31,-1
 77 471 l 2,32,33
 60 471 60 471 60 488 c 0,34,35
 60 495 60 495 65 500.5 c 128,-1,36
 70 506 70 506 77 506 c 2,37,-1
 181 506 l 1,38,39
 217 630 217 630 314.5 725 c 128,-1,40
 412 820 412 820 523 820 c 0,41,42
 580 820 580 820 620.5 799 c 128,-1,43
 661 778 661 778 661 737 c 0,44,45
 661 687 661 687 639 650.5 c 128,-1,46
 617 614 617 614 578 614 c 0,47,48
 550 614 550 614 529.5 634.5 c 128,-1,49
 509 655 509 655 509 684 c 0,50,51
 509 700 509 700 518 711 c 128,-1,52
 527 722 527 722 538.5 727 c 128,-1,53
 550 732 550 732 559.5 743 c 128,-1,54
 569 754 569 754 569 770 c 0,55,56
 569 787 569 787 533 787 c 2,57,-1
 523 787 l 2,58,59
 491 787 491 787 468.5 770 c 128,-1,60
 446 753 446 753 433 719 c 128,-1,61
 420 685 420 685 413 654 c 128,-1,62
 406 623 406 623 397.5 576.5 c 128,-1,63
 389 530 389 530 383 506 c 1,64,-1
 486 506 l 2,65,66
 493 506 493 506 499 497 c 128,-1,67
 505 488 505 488 503 488 c 0,68,69
 501 471 501 471 486 471 c 2,70,-1
 373 471 l 1,0,-1
EndSplineSet
Validated: 1
EndChar

StartChar: m
Encoding: 109 109 34
Width: 784
Flags: W
LayerCount: 2
Fore
SplineSet
-49 254 m 0,0,1
 -49 258 -49 258 -39.5 285 c 128,-1,2
 -30 312 -30 312 -9 353.5 c 128,-1,3
 12 395 12 395 39 433.5 c 128,-1,4
 66 472 66 472 106.5 500 c 128,-1,5
 147 528 147 528 191 528 c 0,6,7
 223 528 223 528 243.5 500 c 128,-1,8
 264 472 264 472 268 431 c 1,9,10
 331 528 331 528 410 528 c 0,11,12
 444 528 444 528 465.5 499 c 128,-1,13
 487 470 487 470 492 428 c 1,14,15
 553 528 553 528 630 528 c 4,16,17
 673 528 673 528 705 491.5 c 128,-1,18
 737 455 737 455 737 409 c 0,19,20
 737 396 737 396 734 384 c 2,21,-1
 671 118 l 2,22,23
 670 115 670 115 670 109 c 0,24,25
 670 95 670 95 682 95 c 0,26,27
 702 95 702 95 740 125.5 c 128,-1,28
 778 156 778 156 781 156 c 0,29,30
 792 156 792 156 792 146 c 0,31,32
 792 140 792 140 786 134 c 0,33,34
 703 54 703 54 669 31 c 0,35,36
 614 -7 614 -7 566 -7 c 0,37,38
 539 -7 539 -7 523 8.5 c 128,-1,39
 507 24 507 24 507 48 c 0,40,41
 507 53 507 53 509 65 c 2,42,-1
 578 358 l 2,43,44
 582 376 582 376 582 384 c 0,45,46
 582 416 582 416 558 416 c 0,47,48
 537 416 537 416 516 398 c 128,-1,49
 495 380 495 380 487 358 c 1,50,-1
 390 18 l 2,51,52
 385 0 385 0 367 0 c 2,53,-1
 266 0 l 2,54,55
 258 0 258 0 254.5 5.5 c 128,-1,56
 251 11 251 11 253 18 c 2,57,-1
 350 358 l 2,58,59
 355 375 355 375 355 387 c 0,60,61
 355 416 355 416 333 416 c 128,-1,62
 311 416 311 416 289 398.5 c 128,-1,63
 267 381 267 381 259 358 c 2,64,-1
 143 18 l 1,65,66
 138 0 138 0 119 0 c 2,67,-1
 18 0 l 2,68,69
 1 0 1 0 6 18 c 1,70,-1
 122 358 l 2,71,72
 128 378 128 378 128 386 c 0,73,74
 128 416 128 416 103 416 c 0,75,76
 68 416 68 416 36.5 367.5 c 128,-1,77
 5 319 5 319 -15 260 c 0,78,79
 -21 244 -21 244 -37 244 c 0,80,81
 -49 244 -49 244 -49 254 c 0,0,1
EndSplineSet
Validated: 1
EndChar

StartChar: p
Encoding: 112 112 35
Width: 701
Flags: W
LayerCount: 2
Fore
SplineSet
417 434 m 0,0,1
 368 434 368 434 324.5 377 c 128,-1,2
 281 320 281 320 258.5 251 c 128,-1,3
 236 182 236 182 236 133 c 0,4,5
 236 63 236 63 290 63 c 0,6,7
 338 63 338 63 370 98 c 0,8,9
 405 137 405 137 433 235 c 128,-1,10
 461 333 461 333 461 374 c 0,11,12
 461 434 461 434 417 434 c 0,0,1
-98 255 m 1,13,14
 -94 266 -94 266 -87.5 284 c 128,-1,15
 -81 302 -81 302 -57.5 347.5 c 128,-1,16
 -34 393 -34 393 -9 428.5 c 128,-1,17
 16 464 16 464 55 492.5 c 128,-1,18
 94 521 94 521 134 521 c 0,19,20
 183 521 183 521 217.5 496 c 128,-1,21
 252 471 252 471 262 428 c 1,22,23
 301 471 301 471 350.5 496 c 128,-1,24
 400 521 400 521 447 521 c 0,25,26
 537 521 537 521 587 464 c 128,-1,27
 637 407 637 407 637 317 c 0,28,29
 637 242 637 242 606.5 177.5 c 128,-1,30
 576 113 576 113 531.5 74 c 128,-1,31
 487 35 487 35 440.5 13.5 c 128,-1,32
 394 -8 394 -8 357 -8 c 0,33,34
 315 -8 315 -8 283 1 c 128,-1,35
 251 10 251 10 233 19 c 128,-1,36
 215 28 215 28 207 28 c 0,37,38
 183 28 183 28 177 10 c 2,39,-1
 125 -141 l 2,40,41
 124 -144 124 -144 124 -150 c 0,42,43
 124 -167 124 -167 152.5 -170.5 c 128,-1,44
 181 -174 181 -174 209.5 -176 c 128,-1,45
 238 -178 238 -178 238 -191 c 128,-1,46
 238 -204 238 -204 225 -204 c 0,47,48
 199 -204 199 -204 133 -199 c 0,49,50
 80 -195 80 -195 8 -195 c 0,51,52
 -70 -195 -70 -195 -118 -199 c 0,53,54
 -178 -204 -178 -204 -208 -204 c 0,55,56
 -222 -204 -222 -204 -222 -191 c 0,57,58
 -222 -185 -222 -185 -218.5 -181.5 c 128,-1,59
 -215 -178 -215 -178 -194.5 -175 c 128,-1,60
 -174 -172 -174 -172 -135 -172 c 0,61,62
 -129 -172 -129 -172 -116.5 -172.5 c 128,-1,63
 -104 -173 -104 -173 -98 -173 c 0,64,65
 -59 -173 -59 -173 -51 -149 c 2,66,-1
 128 373 l 2,67,68
 133 388 133 388 133 400 c 0,69,70
 133 434 133 434 104 434 c 0,71,72
 62 434 62 434 15 378 c 0,73,74
 -35 319 -35 319 -59 260 c 0,75,76
 -66 243 -66 243 -84 243 c 0,77,78
 -98 243 -98 243 -98 255 c 1,13,14
EndSplineSet
Validated: 1
EndChar

StartChar: r
Encoding: 114 114 36
Width: 392
Flags: W
LayerCount: 2
Fore
SplineSet
433 378 m 0,0,1
 407 378 407 378 393 390.5 c 128,-1,2
 379 403 379 403 376.5 418.5 c 128,-1,3
 374 434 374 434 365 446.5 c 128,-1,4
 356 459 356 459 338 459 c 0,5,6
 308 459 308 459 274 433 c 128,-1,7
 240 407 240 407 233 377 c 2,8,-1
 140 18 l 2,9,10
 135 0 135 0 118 0 c 2,11,-1
 18 0 l 2,12,13
 10 0 10 0 6.5 5.5 c 128,-1,14
 3 11 3 11 5 18 c 2,15,-1
 108 417 l 2,16,17
 111 429 111 429 111 440 c 0,18,19
 111 476 111 476 84 476 c 0,20,21
 61 476 61 476 33 449.5 c 128,-1,22
 5 423 5 423 -2 396 c 1,23,24
 -8 386 -8 386 -18 386 c 0,25,26
 -30 386 -30 386 -30 397 c 0,27,28
 -30 403 -30 403 -25 417 c 128,-1,29
 -20 431 -20 431 -7 451.5 c 128,-1,30
 6 472 6 472 23.5 490.5 c 128,-1,31
 41 509 41 509 70.5 522 c 128,-1,32
 100 535 100 535 134 535 c 4,33,34
 170 535 170 535 197 518 c 128,-1,35
 224 501 224 501 237 472 c 1,36,37
 313 536 313 536 402 536 c 0,38,39
 450 536 450 536 479.5 516 c 128,-1,40
 509 496 509 496 509 463 c 0,41,42
 509 432 509 432 485.5 405 c 128,-1,43
 462 378 462 378 433 378 c 0,0,1
EndSplineSet
Validated: 1
EndChar

StartChar: s
Encoding: 115 115 37
Width: 460
Flags: W
LayerCount: 2
Fore
SplineSet
226 397 m 0,0,1
 226 371 226 371 254.5 345.5 c 128,-1,2
 283 320 283 320 318 300 c 128,-1,3
 353 280 353 280 381 244.5 c 128,-1,4
 409 209 409 209 409 167 c 0,5,6
 409 89 409 89 344 39.5 c 128,-1,7
 279 -10 279 -10 190 -10 c 0,8,9
 127 -10 127 -10 81 19 c 128,-1,10
 35 48 35 48 35 98 c 0,11,12
 35 129 35 129 50.5 151.5 c 128,-1,13
 66 174 66 174 92 174 c 0,14,15
 117 174 117 174 134 156.5 c 128,-1,16
 151 139 151 139 151 114 c 0,17,18
 151 102 151 102 131.5 88 c 128,-1,19
 112 74 112 74 112 61 c 0,20,21
 112 38 112 38 133.5 28 c 128,-1,22
 155 18 155 18 186 18 c 0,23,24
 231 18 231 18 264.5 45.5 c 128,-1,25
 298 73 298 73 298 114 c 0,26,27
 298 151 298 151 269.5 182 c 128,-1,28
 241 213 241 213 207 232.5 c 128,-1,29
 173 252 173 252 144.5 281.5 c 128,-1,30
 116 311 116 311 116 345 c 0,31,32
 116 423 116 423 174.5 476 c 128,-1,33
 233 529 233 529 313 529 c 0,34,35
 381 529 381 529 415.5 495.5 c 128,-1,36
 450 462 450 462 450 417 c 0,37,38
 450 386 450 386 434 365 c 128,-1,39
 418 344 418 344 390 344 c 0,40,41
 366 344 366 344 348.5 355.5 c 128,-1,42
 331 367 331 367 331 383 c 0,43,44
 331 387 331 387 344 411 c 128,-1,45
 357 435 357 435 357 459 c 0,46,47
 357 479 357 479 347.5 492 c 128,-1,48
 338 505 338 505 322 505 c 0,49,50
 282 505 282 505 254 472.5 c 128,-1,51
 226 440 226 440 226 397 c 0,0,1
EndSplineSet
Validated: 1
EndChar

StartChar: z
Encoding: 122 122 38
Width: 574
Flags: W
LayerCount: 2
Fore
SplineSet
69 23 m 0,0,1
 47 23 47 23 33 13 c 128,-1,2
 19 3 19 3 15 3 c 0,3,4
 9 3 9 3 4.5 8 c 128,-1,5
 0 13 0 13 0 18 c 0,6,7
 0 25 0 25 4 29 c 2,8,-1
 425 422 l 1,9,10
 389 410 389 410 346.5 402.5 c 128,-1,11
 304 395 304 395 250 387 c 128,-1,12
 196 379 196 379 169 375 c 0,13,14
 77 357 77 357 68 357 c 0,15,16
 31 357 31 357 31 390 c 0,17,18
 31 440 31 440 85.5 484 c 128,-1,19
 140 528 140 528 195 528 c 0,20,21
 226 528 226 528 287.5 516 c 128,-1,22
 349 504 349 504 379 504 c 0,23,24
 394 504 394 504 425.5 498.5 c 128,-1,25
 457 493 457 493 471 493 c 0,26,27
 495 493 495 493 511 503.5 c 128,-1,28
 527 514 527 514 529 514 c 0,29,30
 535 514 535 514 540 509 c 128,-1,31
 545 504 545 504 545 498 c 0,32,33
 545 491 545 491 540 487 c 2,34,-1
 144 119 l 1,35,36
 161 123 161 123 183 123 c 0,37,38
 236 123 236 123 342.5 128.5 c 128,-1,39
 449 134 449 134 502 134 c 0,40,41
 533 134 533 134 533 178 c 0,42,43
 533 193 533 193 528 211.5 c 128,-1,44
 523 230 523 230 523 231 c 0,45,46
 523 245 523 245 538 246 c 0,47,48
 562 246 562 246 563 153 c 0,49,50
 563 79 563 79 531.5 25.5 c 128,-1,51
 500 -28 500 -28 442 -28 c 0,52,53
 391 -28 391 -28 292.5 -6.5 c 128,-1,54
 194 15 194 15 143 15 c 0,55,56
 131 15 131 15 105.5 19 c 128,-1,57
 80 23 80 23 69 23 c 0,0,1
EndSplineSet
Validated: 1
EndChar

StartChar: u1D15F
Encoding: 119135 119135 39
Width: 449
VWidth: 1224
Flags: W
HStem: -4 276<186.213 262.787>
VStem: 357 32<249 946.965>
LayerCount: 2
Fore
SplineSet
373 947 m 1,0,1
 388 946 388 946 389 931 c 1,2,-1
 389 181 l 2,3,4
 389 114 389 114 319 55 c 128,-1,5
 249 -4 249 -4 169 -4 c 0,6,7
 120 -4 120 -4 90 21 c 128,-1,8
 60 46 60 46 60 87 c 0,9,10
 60 154 60 154 130 213 c 128,-1,11
 200 272 200 272 280 272 c 0,12,13
 326 272 326 272 357 249 c 1,14,-1
 357 931 l 1,15,16
 358 946 358 946 373 947 c 1,0,1
EndSplineSet
Validated: 1
EndChar
